<svg width="16" height="16" viewBox="0 0 16 16" fill="none" xmlns="http://www.w3.org/2000/svg">
<circle cx="8" cy="8" r="8" fill="url(#paint0_linear_1161_2053)"/>
<path d="M10.4565 9.88249L12.1905 10.7586C11.7679 11.308 11.2303 11.7475 10.5777 12.0771C9.93132 12.4068 9.22902 12.5716 8.47079 12.5716C7.61312 12.5716 6.83002 12.3663 6.12151 11.9557C5.41921 11.5451 4.85676 10.9957 4.43413 10.3075C4.01773 9.61359 3.80952 8.84734 3.80952 8.00881C3.80952 7.37269 3.93072 6.77994 4.1731 6.23055C4.41549 5.67539 4.74799 5.18962 5.17061 4.77325C5.59945 4.35109 6.09665 4.02146 6.66222 3.78436C7.22778 3.54726 7.83064 3.42871 8.47079 3.42871C9.22902 3.42871 9.93132 3.59353 10.5777 3.92315C11.2303 4.25278 11.7679 4.69518 12.1905 5.25034L10.4565 6.12646C10.1955 5.83731 9.89092 5.61756 9.54288 5.4672C9.19484 5.31106 8.83747 5.23299 8.47079 5.23299C7.96116 5.23299 7.49814 5.36311 7.08173 5.62334C6.67154 5.87779 6.34525 6.2161 6.10287 6.63825C5.8667 7.05463 5.74861 7.51148 5.74861 8.00881C5.74861 8.50037 5.8698 8.95722 6.11219 9.37938C6.35457 9.79575 6.68086 10.1312 7.09105 10.3856C7.50746 10.6401 7.96737 10.7673 8.47079 10.7673C8.85612 10.7673 9.22281 10.6863 9.57085 10.5244C9.91889 10.3625 10.2141 10.1485 10.4565 9.88249Z" fill="white"/>
<defs>
<linearGradient id="paint0_linear_1161_2053" x1="1.09899" y1="0.824243" x2="15.9354" y2="15.3859" gradientUnits="userSpaceOnUse">
<stop stop-color="#4478FF"/>
<stop offset="0.406964" stop-color="#444BFF"/>
<stop offset="1" stop-color="#6BE4FF"/>
</linearGradient>
</defs>
</svg>
