<svg width="182" height="181" viewBox="0 0 182 181" fill="none" xmlns="http://www.w3.org/2000/svg">
<path d="M74.285 155.183C75.9359 155.572 77.2707 156.256 78.2894 157.235C79.3045 158.23 79.9828 159.433 80.3245 160.845C80.6625 162.273 80.6354 163.82 80.2431 165.486C79.8509 167.152 79.1853 168.549 78.2462 169.676C77.307 170.803 76.1613 171.585 74.8091 172.023C73.4568 172.461 71.9552 172.485 70.3043 172.097C68.3419 171.635 66.8532 170.767 65.8382 169.492C64.8039 168.23 64.3381 166.682 64.4408 164.849L67.7348 165.624C67.7284 166.56 68.0013 167.355 68.5538 168.011C69.0869 168.679 69.8986 169.141 70.9888 169.398C72.4996 169.753 73.8042 169.518 74.9027 168.692C76.0012 167.865 76.7612 166.557 77.1828 164.766C77.6043 162.975 77.5077 161.464 76.893 160.235C76.2747 159.021 75.2102 158.236 73.6994 157.881C72.6092 157.624 71.6821 157.652 70.918 157.966C70.1347 158.291 69.5428 158.85 69.1424 159.644L65.8484 158.868C66.5557 157.26 67.652 156.129 69.1371 155.475C70.6067 154.819 72.3226 154.721 74.285 155.183Z" fill="#1D1E25"/>
<path d="M58.0287 148.579C59.5054 149.38 60.6239 150.405 61.384 151.654C62.1301 152.896 62.5107 154.259 62.5256 155.741C62.5189 157.23 62.1074 158.727 61.2911 160.232C60.4749 161.737 59.4483 162.891 58.2116 163.695C56.9532 164.504 55.6 164.935 54.152 164.987C52.69 165.032 51.2207 164.653 49.7439 163.852C48.2812 163.059 47.1698 162.037 46.4097 160.788C45.6495 159.538 45.2728 158.169 45.2795 156.68C45.2786 155.205 45.6863 153.715 46.5026 152.21C47.3188 150.705 48.3492 149.544 49.5935 148.727C50.8303 147.923 52.1797 147.499 53.6417 147.455C55.1037 147.411 56.566 147.785 58.0287 148.579ZM56.7127 151.005C55.3063 150.242 53.9365 150.099 52.6032 150.578C51.2558 151.048 50.1435 152.092 49.2662 153.709C48.3889 155.327 48.1204 156.828 48.4608 158.214C48.7871 159.593 49.6534 160.663 51.0599 161.426C52.4663 162.189 53.8432 162.335 55.1905 161.865C56.5379 161.394 57.6502 160.35 58.5275 158.733C59.4048 157.115 59.6733 155.614 59.3329 154.228C58.9926 152.842 58.1192 151.767 56.7127 151.005Z" fill="#1D1E25"/>
<path d="M43.9613 137.849C45.1872 139.021 45.991 140.288 46.3724 141.648C46.7429 143.021 46.7174 144.402 46.2961 145.792C45.8637 147.194 45.056 148.513 43.873 149.751C42.6901 150.988 41.4082 151.855 40.0274 152.35C38.6466 152.845 37.2625 152.938 35.8749 152.63C34.4873 152.322 33.1805 151.582 31.9546 150.41C30.4973 149.017 29.6543 147.514 29.4255 145.901C29.1742 144.288 29.5575 142.718 30.5755 141.19L33.0216 143.528C32.5418 144.331 32.3737 145.155 32.5172 146.001C32.6381 146.847 33.1034 147.657 33.913 148.431C35.0349 149.503 36.2787 149.962 37.6445 149.806C39.0103 149.651 40.3289 148.908 41.6004 147.578C42.8718 146.248 43.5543 144.897 43.6479 143.526C43.7304 142.166 43.2107 140.95 42.0888 139.878C41.2792 139.104 40.4657 138.658 39.6482 138.541C38.8082 138.424 38.0145 138.606 37.2671 139.087L34.8209 136.748C36.2463 135.72 37.7646 135.301 39.3758 135.491C40.9755 135.67 42.504 136.456 43.9613 137.849Z" fill="#1D1E25"/>
<path d="M37.6999 131.652L20.1711 135.22L18.3605 132.276L29.4519 118.241L31.1618 121.022L28.5542 124.203L31.9867 129.784L36.0151 128.913L37.6999 131.652ZM29.5023 130.326L26.9499 126.176L22.2835 131.92L29.5023 130.326Z" fill="#1D1E25"/>
<path d="M25.5283 102.568C25.7694 103.776 25.7783 104.884 25.555 105.891C25.3161 106.901 24.8654 107.75 24.203 108.436C23.5249 109.126 22.6304 109.59 21.5195 109.828L20.8855 106.651C21.6481 106.466 22.2445 106.062 22.6747 105.437C23.086 104.801 23.1994 104.019 23.0147 103.094C22.855 102.293 22.5399 101.696 22.0694 101.3C21.5833 100.907 21.0185 100.775 20.3752 100.904C19.7005 101.038 19.2171 101.355 18.925 101.854C18.6299 102.337 18.4335 102.947 18.3358 103.685C18.2382 104.422 18.1343 105.209 18.0241 106.047C17.8383 107.406 17.4675 108.491 16.9118 109.304C16.3528 110.101 15.5007 110.613 14.3553 110.842C13.3856 111.051 12.5086 110.99 11.7242 110.657C10.9211 110.311 10.2483 109.76 9.70581 109.004C9.14762 108.251 8.76053 107.333 8.54452 106.25C8.32539 105.152 8.32899 104.147 8.55534 103.238C8.77856 102.312 9.19626 101.543 9.80843 100.932C10.4175 100.305 11.2053 99.8781 12.1718 99.6526L12.8152 102.877C12.2377 103.009 11.7732 103.338 11.4215 103.865C11.051 104.379 10.9424 105.021 11.0958 105.79C11.2116 106.452 11.4875 106.976 11.9235 107.362C12.3406 107.736 12.8709 107.858 13.5142 107.73C14.0634 107.621 14.4683 107.36 14.7289 106.949C14.9739 106.542 15.1467 106.018 15.2474 105.378C15.3481 104.737 15.4473 104.008 15.5449 103.189C15.6646 102.317 15.8454 101.506 16.0874 100.756C16.3293 100.006 16.7234 99.3645 17.2697 98.8313C17.8002 98.3013 18.5519 97.9392 19.5247 97.7451C20.3877 97.573 21.2318 97.633 22.0569 97.9252C22.882 98.2174 23.6082 98.7496 24.2354 99.5218C24.8469 100.297 25.2779 101.312 25.5283 102.568Z" fill="#1D1E25"/>
<path d="M24.0042 95.2799L7.43815 88.5305L7.56351 85.0768L24.5753 79.5462L24.4569 82.8081L20.5227 84.0102L20.2851 90.5578L24.1209 92.066L24.0042 95.2799ZM17.9171 89.6313L18.0938 84.7626L11.0256 86.9556L17.9171 89.6313Z" fill="#1D1E25"/>
<path d="M25.0089 78.456L10.6476 67.7912L11.6297 64.4777L29.483 63.3611L28.5555 66.4905L24.4458 66.6743L22.5839 72.9561L25.9229 75.3726L25.0089 78.456ZM20.5216 71.4687L21.9061 66.7976L14.5143 67.16L20.5216 71.4687Z" fill="#1D1E25"/>
<path d="M33.9719 56.6149C33.3583 57.6832 32.636 58.5231 31.8051 59.1345C30.9603 59.7379 30.0626 60.0802 29.1118 60.1615C28.1471 60.2348 27.1683 59.9954 26.1752 59.4435L27.7889 56.634C28.4847 56.9967 29.1999 57.0846 29.9346 56.8977C30.6634 56.689 31.2629 56.1753 31.7331 55.3567C32.1395 54.6491 32.2957 53.9916 32.2018 53.3841C32.094 52.7686 31.7557 52.2976 31.1869 51.9708C30.5903 51.6282 30.0179 51.5485 29.4698 51.7319C28.9296 51.9013 28.3801 52.2315 27.8214 52.7225C27.2626 53.2134 26.6661 53.738 26.0318 54.2963C24.9978 55.1969 24.0043 55.7703 23.0511 56.0162C22.106 56.2483 21.127 56.0735 20.1142 55.4918C19.246 55.0116 18.6262 54.388 18.2548 53.6212C17.8775 52.8325 17.7335 51.9748 17.8229 51.0482C17.8984 50.1137 18.2111 49.1677 18.7609 48.2104C19.3187 47.2392 19.9823 46.4855 20.7515 45.9494C21.5286 45.3994 22.3489 45.0956 23.2123 45.038C24.0837 44.9665 24.9575 45.1639 25.8336 45.6302L24.196 48.4814C23.6747 48.2004 23.1082 48.1426 22.4966 48.308C21.8791 48.4515 21.3751 48.8632 20.9846 49.543C20.6361 50.1177 20.4989 50.694 20.573 51.2716C20.6412 51.8275 20.9598 52.2687 21.5286 52.5955C22.0142 52.8744 22.4904 52.9449 22.957 52.807C23.4098 52.6611 23.8848 52.3804 24.3818 51.9647C24.8789 51.5491 25.4336 51.0651 26.0461 50.5127C26.7102 49.9347 27.3801 49.443 28.0558 49.0377C28.7314 48.6323 29.4503 48.4087 30.2125 48.3667C30.9608 48.3168 31.765 48.5388 32.6252 49.0329C33.3883 49.4712 33.9843 50.0718 34.4133 50.8349C34.8423 51.5979 35.0388 52.4765 35.0028 53.4707C34.953 54.4569 34.6094 55.505 33.9719 56.6149Z" fill="#1D1E25"/>
<path d="M43.94 43.2841L32.8841 30.6347L35.1971 28.6131L44.6736 39.4554L50.2755 34.5591L51.8549 36.3662L43.94 43.2841Z" fill="#1D1E25"/>
<path d="M53.4941 35.1712L51.0133 17.4559L54.0631 15.8302L67.3875 27.7653L64.5072 29.3007L61.4923 26.5019L55.7104 29.584L56.3321 33.6584L53.4941 35.1712ZM55.3227 27.0709L59.6221 24.7792L54.1766 19.7676L55.3227 27.0709Z" fill="#1D1E25"/>
<path d="M69.598 27.3386L65.6393 11.0116L68.6248 10.2877L79.0865 19.926L76.2985 8.42717L79.284 7.70329L83.2427 24.0302L80.2572 24.7541L69.8011 15.1392L72.5835 26.6147L69.598 27.3386Z" fill="#1D1E25"/>
<path d="M86.0961 24.0205L86.3311 7.22213L92.0666 7.30239C94.0344 7.32992 95.6453 7.7045 96.8993 8.42612C98.1696 9.13196 99.0998 10.1211 99.6901 11.3935C100.297 12.6501 100.588 14.1263 100.564 15.8221C100.54 17.518 100.208 18.9934 99.5662 20.2486C98.9408 21.488 97.9832 22.4507 96.6935 23.1367C95.42 23.8069 93.7993 24.1283 91.8315 24.1007L86.0961 24.0205ZM89.2047 21.4237L91.7245 21.459C93.1323 21.4787 94.2474 21.2703 95.0695 20.8337C95.892 20.3812 96.4851 19.7334 96.8489 18.8904C97.213 18.0314 97.4035 16.994 97.4205 15.7781C97.4373 14.5782 97.2758 13.5439 96.9359 12.675C96.596 11.8062 96.0214 11.1341 95.2119 10.6587C94.4025 10.1834 93.2939 9.93582 91.886 9.91612L89.3662 9.88086L89.2047 21.4237Z" fill="#1D1E25"/>
<path d="M103.202 25.22L106.548 8.75678L109.559 9.36877L106.212 25.832L103.202 25.22Z" fill="#1D1E25"/>
<path d="M110.787 26.8479L117.129 11.2911L119.974 12.4509L122.819 26.3883L127.286 15.4319L130.13 16.5916L123.788 32.1484L120.943 30.9886L118.089 17.0735L113.632 28.0077L110.787 26.8479Z" fill="#1D1E25"/>
<path d="M131.78 38.3978C130.518 37.4413 129.632 36.3186 129.123 35.0297C128.614 33.7408 128.484 32.3882 128.734 30.9718C128.994 29.5426 129.641 28.1457 130.675 26.7811C131.718 25.4037 132.904 24.395 134.232 23.755C135.582 23.1119 136.977 22.8738 138.416 23.0408C139.878 23.2046 141.297 23.8083 142.674 24.8517C144.243 26.0401 145.259 27.4018 145.722 28.9368C146.185 30.4719 146.067 32.0185 145.368 33.5768L142.633 31.5044C142.902 30.7249 142.899 29.9601 142.625 29.2099C142.36 28.447 141.806 27.7468 140.964 27.1091C139.625 26.0946 138.269 25.7393 136.894 26.0431C135.53 26.3341 134.287 27.2193 133.166 28.6987C132.045 30.1781 131.533 31.5965 131.629 32.9538C131.747 34.308 132.425 35.4536 133.662 36.3908C134.874 37.3087 136.032 37.6742 137.137 37.4876C138.264 37.2978 139.297 36.7156 140.236 35.7409L136.85 33.1757L138.242 31.3392L144.095 35.7739L138.516 43.1391L136.258 41.429L137.4 39.5241C136.484 39.8332 135.57 39.9136 134.658 39.7652C133.747 39.6169 132.788 39.161 131.78 38.3978Z" fill="#1D1E25"/>
<path d="M145.196 51.6607L159.483 42.8223L162.754 48.1085C163.461 49.2515 163.855 50.315 163.937 51.2991C164.019 52.2831 163.84 53.1651 163.401 53.9449C162.961 54.7248 162.327 55.3714 161.497 55.8849C160.708 56.3731 159.87 56.6466 158.985 56.7053C158.113 56.7555 157.241 56.5327 156.37 56.0369C155.512 55.5326 154.722 54.6954 153.998 53.5252L152.344 50.8515L146.812 54.2732L145.196 51.6607ZM154.466 49.5383L156.019 52.0488C156.583 52.9605 157.185 53.4915 157.823 53.642C158.484 53.7977 159.161 53.6609 159.855 53.2316C160.563 52.7939 160.988 52.2489 161.13 51.5965C161.294 50.9494 161.094 50.17 160.53 49.2584L158.977 46.7479L154.466 49.5383Z" fill="#1D1E25"/>
<path d="M152.25 63.5578L170.127 64.1744L171.202 67.4591L157.144 78.5217L156.13 75.4194L159.407 72.9333L157.37 66.7059L153.249 66.6145L152.25 63.5578ZM159.912 66.7582L161.427 71.3887L167.304 66.8908L159.912 66.7582Z" fill="#1D1E25"/>
<path d="M157.352 88.0661C157.265 86.4845 157.549 85.0829 158.203 83.8611C158.857 82.6394 159.805 81.6658 161.047 80.9405C162.305 80.2144 163.788 79.8043 165.498 79.7103C167.223 79.6154 168.759 79.8674 170.106 80.4664C171.47 81.0804 172.554 81.9903 173.357 83.196C174.177 84.4168 174.635 85.8899 174.73 87.6153C174.838 89.5803 174.456 91.2357 173.585 92.5816C172.713 93.9275 171.457 94.8378 169.817 95.3126L169.629 91.8858C170.397 91.5871 170.979 91.0905 171.373 90.3958C171.784 89.7002 171.96 88.8252 171.902 87.7708C171.81 86.0933 171.203 84.8287 170.083 83.9769C168.979 83.1243 167.5 82.7489 165.646 82.8508C163.793 82.9528 162.38 83.4791 161.407 84.43C160.45 85.396 160.015 86.6538 160.1 88.2035C160.184 89.7212 160.654 90.8411 161.511 91.5631C162.384 92.3002 163.497 92.7118 164.847 92.7977L164.614 88.5561L166.915 88.4296L167.318 95.7625L158.092 96.2699L157.936 93.4422L160.128 93.0813C159.299 92.5821 158.647 91.9369 158.171 91.1459C157.695 90.3548 157.422 89.3282 157.352 88.0661Z" fill="#1D1E25"/>
<path d="M157.349 98.9218L173.854 102.055L171.809 112.831L169.38 112.37L170.853 104.612L166.326 103.753L164.987 110.803L162.629 110.355L163.968 103.305L159.205 102.401L157.732 110.158L155.304 109.697L157.349 98.9218Z" fill="#1D1E25"/>
<path d="M147.51 125.738C148.141 124.679 148.917 123.847 149.837 123.241C150.771 122.642 151.815 122.343 152.97 122.342C154.117 122.355 155.344 122.751 156.649 123.529L165.556 128.836L163.983 131.475L155.056 126.155C153.929 125.484 152.931 125.252 152.062 125.461C151.184 125.683 150.459 126.275 149.886 127.237C149.321 128.185 149.149 129.098 149.371 129.976C149.593 130.853 150.268 131.628 151.395 132.299L160.322 137.619L158.75 140.258L149.843 134.951C148.537 134.172 147.614 133.268 147.073 132.238C146.532 131.208 146.311 130.126 146.409 128.993C146.513 127.881 146.88 126.796 147.51 125.738Z" fill="#1D1E25"/>
<path d="M141.86 134.008L154.498 145.077L152.474 147.388L139.836 136.319L141.86 134.008Z" fill="#1D1E25"/>
<path d="M130.357 144.945L139.181 159.241L136.567 160.854L132.999 155.075L131.277 164.119L128.05 166.111L129.815 157.181L119.084 151.903L122.29 149.924L130.459 154.02L130.907 151.684L127.743 146.558L130.357 144.945Z" fill="#1D1E25"/>
<path d="M116.434 152.53L122.599 168.158L119.742 169.286L113.577 153.658L116.434 152.53Z" fill="#1D1E25"/>
<path d="M105.238 156.033L108.195 170.053L112.985 169.042L113.495 171.461L100.885 174.12L100.375 171.702L105.189 170.686L102.232 156.667L105.238 156.033Z" fill="#1D1E25"/>
</svg>
