<svg width="42" height="42" viewBox="0 0 42 42" fill="none" xmlns="http://www.w3.org/2000/svg">
<circle cx="21" cy="21" r="20.5" fill="white" stroke="#E9ECF2"/>
<g clip-path="url(#clip0_1217_1549)">
<path d="M20.9997 13.1738C16.4978 13.1738 12.833 16.1669 12.833 19.8453C12.833 23.1399 15.739 25.9002 19.6624 26.4249C19.9285 26.4814 20.2905 26.6019 20.3824 26.8292C20.4641 27.0354 20.4362 27.3539 20.4083 27.5689L20.2967 28.2672C20.266 28.4734 20.1333 29.0791 21.0106 28.7089C21.8892 28.34 25.7173 25.9159 27.4323 23.932C28.6056 22.639 29.1663 21.314 29.1663 19.8453C29.1663 16.1669 25.5015 13.1738 20.9997 13.1738ZM17.8031 22.0326H16.1793C15.9445 22.0326 15.7505 21.8373 15.7505 21.6018V18.3345C15.7505 18.0983 15.9445 17.903 16.1793 17.903C16.4161 17.903 16.608 18.0983 16.608 18.3345V21.1704H17.8031C18.0399 21.1704 18.2312 21.3643 18.2312 21.6018C18.2312 21.8373 18.0393 22.0326 17.8031 22.0326ZM19.4814 21.6018C19.4814 21.8373 19.2894 22.0326 19.0519 22.0326C18.8171 22.0326 18.6252 21.8373 18.6252 21.6018V18.3345C18.6252 18.0983 18.8171 17.903 19.054 17.903C19.2894 17.903 19.4814 18.0983 19.4814 18.3345V21.6018ZM23.3884 21.6018C23.3884 21.7869 23.27 21.951 23.0944 22.0102C23.0509 22.0245 23.0039 22.0313 22.959 22.0313C22.8154 22.0313 22.6929 21.9693 22.6119 21.8598L20.9493 19.5881V21.6011C20.9493 21.8366 20.7594 22.0319 20.5199 22.0319C20.2844 22.0319 20.0939 21.8366 20.0939 21.6011V18.3345C20.0939 18.1494 20.2116 17.9854 20.3865 17.9268C20.4273 17.9112 20.4791 17.9044 20.5185 17.9044C20.6512 17.9044 20.7737 17.9758 20.8554 18.0786L22.5309 20.3591V18.3345C22.5309 18.0983 22.7228 17.903 22.9597 17.903C23.1945 17.903 23.3884 18.0983 23.3884 18.3345V21.6018ZM26.012 19.5363C26.2495 19.5363 26.4407 19.7317 26.4407 19.9685C26.4407 20.2046 26.2495 20.4 26.012 20.4H24.8176V21.1704H26.012C26.2495 21.1704 26.4407 21.3643 26.4407 21.6018C26.4407 21.8373 26.2495 22.0326 26.012 22.0326H24.3882C24.1534 22.0326 23.9615 21.8373 23.9615 21.6018V18.3345C23.9615 18.0983 24.1534 17.903 24.3902 17.903H26.014C26.2495 17.903 26.4407 18.0983 26.4407 18.3345C26.4407 18.5734 26.2495 18.766 26.012 18.766H24.8176V19.5363H26.012Z" fill="#8E59FF"/>
</g>
<defs>
<clipPath id="clip0_1217_1549">
<rect width="16.3333" height="16.3333" fill="white" transform="translate(12.833 12.8335)"/>
</clipPath>
</defs>
</svg>
