<svg width="32" height="32" viewBox="0 0 32 32" fill="none" xmlns="http://www.w3.org/2000/svg">
<path d="M8.94326 7.05703C8.42256 6.53633 7.57834 6.53633 7.05764 7.05703C6.53694 7.57773 6.53694 8.42195 7.05764 8.94265L14.1148 15.9998L7.05752 23.057C6.53682 23.5777 6.53682 24.422 7.05752 24.9426C7.57822 25.4633 8.42244 25.4633 8.94313 24.9426L16.0004 17.8854L23.0576 24.9427C23.5783 25.4634 24.4226 25.4634 24.9433 24.9427C25.464 24.422 25.464 23.5777 24.9433 23.057L17.886 15.9998L24.9431 8.94265C25.4638 8.42195 25.4638 7.57773 24.9431 7.05703C24.4224 6.53633 23.5782 6.53633 23.0575 7.05703L16.0004 14.1142L8.94326 7.05703Z" fill="#808D9E"/>
</svg>
