<svg width="140" height="42" viewBox="0 0 140 42" fill="none" xmlns="http://www.w3.org/2000/svg">
<path d="M68.1455 26.4848L72.722 28.8558C71.7651 30.1044 70.5655 31.1072 69.1232 31.8643C67.6809 32.6214 66.1069 33 64.4011 33C62.4873 33 60.7399 32.5285 59.159 31.5854C57.5919 30.6423 56.3368 29.3805 55.3937 27.7998C54.4646 26.2059 54 24.4459 54 22.5199C54 21.0588 54.2704 19.6973 54.8113 18.4355C55.3521 17.1603 56.0941 16.0446 57.0371 15.0882C57.994 14.1186 59.1035 13.3615 60.3655 12.8169C61.6275 12.2723 62.9727 12 64.4011 12C66.1069 12 67.6809 12.3786 69.1232 13.1357C70.5655 13.8928 71.7651 14.9089 72.722 16.1841L68.1455 18.5351C67.6601 18.0038 67.0846 17.592 66.4189 17.2998C65.7671 17.0076 65.0945 16.8615 64.4011 16.8615C63.4026 16.8615 62.5012 17.1271 61.6968 17.6584C60.8925 18.1765 60.2545 18.8672 59.783 19.7305C59.3115 20.5806 59.0757 21.5104 59.0757 22.5199C59.0757 23.5161 59.3115 24.4459 59.783 25.3093C60.2545 26.1594 60.8925 26.8435 61.6968 27.3615C62.5012 27.8795 63.4026 28.1385 64.4011 28.1385C65.1223 28.1385 65.8087 27.9924 66.4605 27.7002C67.1123 27.3947 67.674 26.9896 68.1455 26.4848Z" fill="#1D1E25"/>
<path d="M84.9596 33C83.0458 33 81.2984 32.5285 79.7174 31.5854C78.1503 30.6423 76.8952 29.3805 75.9522 27.7998C75.023 26.2059 74.5585 24.4459 74.5585 22.5199C74.5585 21.0588 74.8289 19.6973 75.3697 18.4355C75.9106 17.1603 76.6525 16.0446 77.5956 15.0882C78.5525 14.1186 79.6619 13.3615 80.9239 12.8169C82.1859 12.2723 83.5312 12 84.9596 12C86.8734 12 88.6138 12.4715 90.1809 13.4146C91.7619 14.3577 93.017 15.6262 93.9461 17.2201C94.8892 18.814 95.3607 20.5806 95.3607 22.5199C95.3607 23.9677 95.0903 25.3226 94.5494 26.5844C94.0085 27.8463 93.2597 28.9621 92.3028 29.9317C91.3597 30.888 90.2572 31.6385 88.9952 32.1831C87.7471 32.7277 86.4019 33 84.9596 33ZM84.9596 28.1385C85.9719 28.1385 86.8803 27.8795 87.6847 27.3615C88.489 26.8435 89.12 26.1594 89.5777 25.3093C90.0492 24.4592 90.2849 23.5294 90.2849 22.5199C90.2849 21.4839 90.0422 20.5408 89.5569 19.6907C89.0853 18.8273 88.4405 18.1433 87.6223 17.6385C86.8179 17.1205 85.9303 16.8615 84.9596 16.8615C83.9611 16.8615 83.0596 17.1205 82.2553 17.6385C81.4509 18.1565 80.813 18.8472 80.3415 19.7106C79.87 20.574 79.6342 21.5104 79.6342 22.5199C79.6342 23.5693 79.8769 24.519 80.3623 25.3691C80.8477 26.2192 81.4925 26.8966 82.2969 27.4013C83.1151 27.8928 84.0027 28.1385 84.9596 28.1385Z" fill="#1D1E25"/>
<path d="M111.578 26.4848L116.155 28.8558C115.198 30.1044 113.998 31.1072 112.556 31.8643C111.114 32.6214 109.54 33 107.834 33C105.92 33 104.173 32.5285 102.592 31.5854C101.025 30.6423 99.7696 29.3805 98.8265 27.7998C97.8974 26.2059 97.4328 24.4459 97.4328 22.5199C97.4328 21.0588 97.7032 19.6973 98.2441 18.4355C98.7849 17.1603 99.5269 16.0446 100.47 15.0882C101.427 14.1186 102.536 13.3615 103.798 12.8169C105.06 12.2723 106.405 12 107.834 12C109.54 12 111.114 12.3786 112.556 13.1357C113.998 13.8928 115.198 14.9089 116.155 16.1841L111.578 18.5351C111.093 18.0038 110.517 17.592 109.852 17.2998C109.2 17.0076 108.527 16.8615 107.834 16.8615C106.835 16.8615 105.934 17.1271 105.13 17.6584C104.325 18.1765 103.687 18.8672 103.216 19.7305C102.744 20.5806 102.509 21.5104 102.509 22.5199C102.509 23.5161 102.744 24.4459 103.216 25.3093C103.687 26.1594 104.325 26.8435 105.13 27.3615C105.934 27.8795 106.835 28.1385 107.834 28.1385C108.555 28.1385 109.242 27.9924 109.893 27.7002C110.545 27.3947 111.107 26.9896 111.578 26.4848Z" fill="#1D1E25"/>
<path d="M134.924 12.5579H140V32.482H134.924L134.695 30.0114C134.127 30.9013 133.371 31.6252 132.428 32.1831C131.499 32.7277 130.396 33 129.12 33C127.581 33 126.139 32.7211 124.794 32.1632C123.448 31.6053 122.263 30.8349 121.236 29.852C120.224 28.8691 119.427 27.7334 118.844 26.445C118.276 25.1565 117.991 23.7751 117.991 22.3008C117.991 20.8795 118.262 19.5446 118.803 18.296C119.357 17.0474 120.127 15.9516 121.112 15.0085C122.096 14.0655 123.233 13.3283 124.523 12.797C125.813 12.2657 127.2 12 128.684 12C130.057 12 131.284 12.2922 132.366 12.8767C133.461 13.4611 134.39 14.2049 135.153 15.1082L134.924 12.5579ZM128.996 28.3178C130.077 28.3178 131.034 28.0588 131.866 27.5408C132.698 27.0228 133.35 26.3254 133.822 25.4488C134.293 24.5588 134.529 23.5825 134.529 22.5199C134.529 21.444 134.293 20.4677 133.822 19.5911C133.35 18.7011 132.691 17.9972 131.846 17.4791C131.013 16.9611 130.063 16.7021 128.996 16.7021C127.928 16.7021 126.95 16.9677 126.062 17.4991C125.189 18.0171 124.488 18.7144 123.961 19.5911C123.448 20.4677 123.192 21.444 123.192 22.5199C123.192 23.5958 123.455 24.5721 123.982 25.4488C124.509 26.3254 125.21 27.0228 126.083 27.5408C126.971 28.0588 127.942 28.3178 128.996 28.3178Z" fill="#1D1E25"/>
<circle cx="21" cy="21" r="21" fill="url(#paint0_linear_1161_1941)"/>
<path d="M27.4483 25.9412L32 28.241C30.8906 29.6831 29.4794 30.8368 27.7664 31.7021C26.0697 32.5674 24.2262 33 22.2358 33C19.9844 33 17.9288 32.4611 16.069 31.3833C14.2254 30.3055 12.749 28.8634 11.6396 27.0569C10.5465 25.2353 10 23.2239 10 21.0228C10 19.3529 10.3181 17.797 10.9544 16.3548C11.5907 14.8975 12.4635 13.6224 13.5729 12.5294C14.6986 11.4213 16.0037 10.556 17.4883 9.93359C18.9729 9.3112 20.5554 9 22.2358 9C24.2262 9 26.0697 9.43264 27.7664 10.2979C29.4794 11.1632 30.8906 12.3245 32 13.7818L27.4483 16.0816C26.7631 15.3226 25.9637 14.7457 25.0501 14.351C24.1364 13.9412 23.1984 13.7362 22.2358 13.7362C20.898 13.7362 19.6826 14.0778 18.5895 14.7609C17.5128 15.4288 16.6563 16.3169 16.02 17.425C15.4001 18.518 15.0901 19.7173 15.0901 21.0228C15.0901 22.3131 15.4082 23.5123 16.0445 24.6205C16.6808 25.7135 17.5373 26.5939 18.614 27.2619C19.7071 27.9298 20.9143 28.2638 22.2358 28.2638C23.2473 28.2638 24.2099 28.0512 25.1235 27.6262C26.0371 27.2011 26.812 26.6395 27.4483 25.9412Z" fill="white"/>
<defs>
<linearGradient id="paint0_linear_1161_1941" x1="2.88485" y1="2.16364" x2="41.8303" y2="40.3879" gradientUnits="userSpaceOnUse">
<stop stop-color="#4478FF"/>
<stop offset="0.406964" stop-color="#444BFF"/>
<stop offset="1" stop-color="#6BE4FF"/>
</linearGradient>
</defs>
</svg>
