<svg width="80" height="80" viewBox="0 0 80 80" fill="none" xmlns="http://www.w3.org/2000/svg">
<rect x="80" y="80" width="80" height="80" rx="40" transform="rotate(-180 80 80)" fill="#B5E4CA"/>
<path d="M32.5 35.5L39.07 40.735C39.3348 40.9443 39.6625 41.0581 40 41.0581C40.3375 41.0581 40.6652 40.9443 40.93 40.735L47.5 35.5M52 50.5H28C27.6022 50.5 27.2206 50.342 26.9393 50.0607C26.658 49.7794 26.5 49.3978 26.5 49V31C26.5 30.6022 26.658 30.2206 26.9393 29.9393C27.2206 29.658 27.6022 29.5 28 29.5H52C52.3978 29.5 52.7794 29.658 53.0607 29.9393C53.342 30.2206 53.5 30.6022 53.5 31V49C53.5 49.3978 53.342 49.7794 53.0607 50.0607C52.7794 50.342 52.3978 50.5 52 50.5Z" stroke="#1D1E25" stroke-width="2" stroke-linecap="round" stroke-linejoin="round"/>
</svg>
