<svg width="60" height="60" viewBox="0 0 60 60" fill="none" xmlns="http://www.w3.org/2000/svg">
<circle cx="30" cy="30" r="30" fill="#CABDFF"/>
<path d="M29.68 34.9298L33.75 38.9998L35.54 37.2098C35.6442 37.106 35.7242 36.9805 35.7743 36.8422C35.8245 36.7039 35.8435 36.5563 35.83 36.4098L35.18 29.2998" stroke="#1D1E25" stroke-width="2" stroke-linecap="round" stroke-linejoin="round"/>
<path d="M27.37 22.71L26 24.13M27.37 35.46C27.463 35.5537 27.5736 35.6281 27.6954 35.6789C27.8173 35.7297 27.948 35.7558 28.08 35.7558C28.212 35.7558 28.3427 35.7297 28.4646 35.6789C28.5864 35.6281 28.697 35.5537 28.79 35.46L36.7 27.55C38.1713 26.0775 38.9985 24.0816 39 22C39 21.7348 38.8946 21.4804 38.7071 21.2929C38.5196 21.1054 38.2652 21 38 21C35.9184 21.0015 33.9225 21.8287 32.45 23.3L24.54 31.21C24.4463 31.303 24.3719 31.4136 24.3211 31.5354C24.2703 31.6573 24.2442 31.788 24.2442 31.92C24.2442 32.052 24.2703 32.1827 24.3211 32.3046C24.3719 32.4264 24.4463 32.537 24.54 32.63L27.37 35.46ZM35.87 34L37.29 32.59L35.87 34Z" stroke="#1D1E25" stroke-width="2" stroke-linecap="round" stroke-linejoin="round"/>
<path d="M30.75 24.8202L23.59 24.1702C23.4435 24.1567 23.2959 24.1758 23.1576 24.2259C23.0193 24.276 22.8938 24.356 22.79 24.4602L21 26.2502L25.09 30.3402" stroke="#1D1E25" stroke-width="2" stroke-linecap="round" stroke-linejoin="round"/>
</svg>
