<svg width="60" height="60" viewBox="0 0 60 60" fill="none" xmlns="http://www.w3.org/2000/svg">
<circle cx="30" cy="30" r="30" fill="#FFBC99"/>
<path d="M21 21V20C20.4477 20 20 20.4477 20 21H21ZM36.293 32.293L35.3818 31.8809C35.2104 32.2601 35.2916 32.7058 35.5859 33.0001L36.293 32.293ZM39 35L39.7071 35.7071C40.0976 35.3166 40.0976 34.6834 39.7071 34.2929L39 35ZM35 39L34.2929 39.7071C34.6834 40.0976 35.3166 40.0976 35.7071 39.7071L35 39ZM32.293 36.293L33.0001 35.5859C32.7058 35.2916 32.2601 35.2104 31.8809 35.3818L32.293 36.293ZM29 20H21V22H29V20ZM38 29C38 24.0294 33.9706 20 29 20V22C32.866 22 36 25.134 36 29H38ZM37.2041 32.7051C37.7157 31.5738 38 30.3188 38 29H36C36 30.029 35.7786 31.0036 35.3818 31.8809L37.2041 32.7051ZM35.5859 33.0001L38.2929 35.7071L39.7071 34.2929L37.0001 31.5859L35.5859 33.0001ZM38.2929 34.2929L34.2929 38.2929L35.7071 39.7071L39.7071 35.7071L38.2929 34.2929ZM35.7071 38.2929L33.0001 35.5859L31.5859 37.0001L34.2929 39.7071L35.7071 38.2929ZM29 38C30.3188 38 31.5738 37.7157 32.7051 37.2041L31.8809 35.3818C31.0036 35.7786 30.029 36 29 36V38ZM20 29C20 33.9706 24.0294 38 29 38V36C25.134 36 22 32.866 22 29H20ZM20 21V29H22V21H20Z" fill="#1D1E25"/>
<ellipse cx="29" cy="29" rx="2" ry="2" transform="rotate(-180 29 29)" fill="#1D1E25"/>
<path d="M21 21L29 29" stroke="#1D1E25" stroke-width="2" stroke-linecap="round" stroke-linejoin="round"/>
</svg>
